# xmcd CD database file
#
# Track frame offsets:
#	150
#	6289
#	28096
#	49226
#	68379
#	84248
#	108624
#	130129
#	148967
#	163317
#	177154
#	199290
#	214974
#	233964
#	253005
#	275992
#	292832
#
# Disc length: 4025 seconds
#
# Revision: 0
# Processed by: cddbd v1.5.2PL0 Copyright (c) Steve Scherf et al.
# Submitted via: cdripper 1,0,33,916
#
DISCID=070fb711
DTITLE=RadioClit - Hard Working Class Vol. 1
DYEAR=2007
DGENRE=New Age
TTITLE0=Intro
TTITLE1=Turbulence - Notorious (Radioclit RMX ft. Trim)
TTITLE2=Bonde Do Role - Melo Do Tabaco (Radioclit RMX)
TTITLE3=Lily Allen - LDN (Radioclit RMX)
TTITLE4=Buraka Som Sistema ft. Petty - Wawaba (Radioclit RMX)
TTITLE5=Justin Timberlake - My Love (Radioclit RMX)
TTITLE6=Wonder ft. Kano - What Have You Done (Radioclit RMX)
TTITLE7=Radioclit - Divine Gosa (Club Mix)
TTITLE8=Radioclit ft. TTC, Ears, Skepta and Tinchy Stryder - Mature Macho Machine
TTITLE9=Radioclit - Nelly Ti Picou
TTITLE10=Confetti's - Sound Of C (Radioclit ft. Ears)
TTITLE11=One-Two - Oh Hot Brain (Radioclit RMX)
TTITLE12=David Banner ft. Twista - On Everything (Radioclit RMX)
TTITLE13=Bonde Do Role - Gasolina (Radioclit RMX)
TTITLE14=Radioclit - Mature Macho Machine (Solid Groove and Sinder RMX)
TTITLE15=Radioclit and No Surrender ft. Tunde and Ears - Silver Hall
TTITLE16=Outro
EXTD=YEAR: 2007
EXTT0=
EXTT1=
EXTT2=
EXTT3=
EXTT4=
EXTT5=
EXTT6=
EXTT7=
EXTT8=
EXTT9=
EXTT10=
EXTT11=
EXTT12=
EXTT13=
EXTT14=
EXTT15=
EXTT16=
PLAYORDER=
